<mxfile host="app.diagrams.net" agent="Mozilla/5.0 (Windows NT 10.0; Win64; x64) AppleWebKit/537.36 (KHTML, like Gecko) Chrome/127.0.0.0 Safari/537.36 Edg/127.0.0.0" version="24.7.6">
  <diagram name="‫עמוד-1‬" id="xZf6sX6Ic44M0a_euZIN">
    <mxGraphModel dx="1430" dy="796" grid="1" gridSize="10" guides="1" tooltips="1" connect="1" arrows="1" fold="1" page="1" pageScale="1" pageWidth="827" pageHeight="1169" math="0" shadow="0">
      <root>
        <mxCell id="0" />
        <mxCell id="1" parent="0" />
        <mxCell id="8i4qMbkFrFHu-ItXetFA-12" value="" style="verticalLabelPosition=bottom;shadow=0;dashed=0;align=center;html=1;verticalAlign=top;shape=mxgraph.electrical.logic_gates.inverter_2;rotation=90;" vertex="1" parent="1">
          <mxGeometry x="61.25" y="459" width="30" height="17" as="geometry" />
        </mxCell>
        <mxCell id="8i4qMbkFrFHu-ItXetFA-14" value="" style="pointerEvents=1;verticalLabelPosition=bottom;shadow=0;dashed=0;align=center;html=1;verticalAlign=top;shape=mxgraph.electrical.signal_sources.source;aspect=fixed;points=[[0.5,0,0],[1,0.5,0],[0.5,1,0],[0,0.5,0]];elSignalType=dc2;" vertex="1" parent="1">
          <mxGeometry x="30" y="200" width="60" height="60" as="geometry" />
        </mxCell>
        <object label="" A="" id="8i4qMbkFrFHu-ItXetFA-15">
          <mxCell style="pointerEvents=1;verticalLabelPosition=bottom;shadow=0;dashed=0;align=center;html=1;verticalAlign=top;shape=mxgraph.electrical.signal_sources.source;aspect=fixed;points=[[0.5,0,0],[1,0.5,0],[0.5,1,0],[0,0.5,0]];elSignalType=dc2;" vertex="1" parent="1">
            <mxGeometry x="120" y="200" width="60" height="60" as="geometry" />
          </mxCell>
        </object>
        <mxCell id="8i4qMbkFrFHu-ItXetFA-17" value="A" style="text;html=1;align=center;verticalAlign=middle;whiteSpace=wrap;rounded=0;" vertex="1" parent="1">
          <mxGeometry x="130" y="208" width="60" height="30" as="geometry" />
        </mxCell>
        <mxCell id="8i4qMbkFrFHu-ItXetFA-18" value="B" style="text;html=1;align=center;verticalAlign=middle;whiteSpace=wrap;rounded=0;" vertex="1" parent="1">
          <mxGeometry x="40" y="215" width="60" height="30" as="geometry" />
        </mxCell>
        <mxCell id="8i4qMbkFrFHu-ItXetFA-19" value="" style="pointerEvents=1;verticalLabelPosition=bottom;shadow=0;dashed=0;align=center;html=1;verticalAlign=top;shape=mxgraph.electrical.signal_sources.signal_ground;" vertex="1" parent="1">
          <mxGeometry x="97.5" y="290" width="22.5" height="20" as="geometry" />
        </mxCell>
        <mxCell id="8i4qMbkFrFHu-ItXetFA-20" value="" style="pointerEvents=1;verticalLabelPosition=bottom;shadow=0;dashed=0;align=center;html=1;verticalAlign=top;shape=mxgraph.electrical.signal_sources.signal_ground;" vertex="1" parent="1">
          <mxGeometry x="7.5" y="290" width="22.5" height="20" as="geometry" />
        </mxCell>
        <mxCell id="8i4qMbkFrFHu-ItXetFA-21" style="edgeStyle=orthogonalEdgeStyle;rounded=0;orthogonalLoop=1;jettySize=auto;html=1;exitX=0.5;exitY=1;exitDx=0;exitDy=0;exitPerimeter=0;entryX=0.5;entryY=0;entryDx=0;entryDy=0;entryPerimeter=0;" edge="1" parent="1" source="8i4qMbkFrFHu-ItXetFA-14" target="8i4qMbkFrFHu-ItXetFA-20">
          <mxGeometry relative="1" as="geometry" />
        </mxCell>
        <mxCell id="8i4qMbkFrFHu-ItXetFA-22" style="edgeStyle=orthogonalEdgeStyle;rounded=0;orthogonalLoop=1;jettySize=auto;html=1;entryX=0.5;entryY=0;entryDx=0;entryDy=0;entryPerimeter=0;" edge="1" parent="1" source="8i4qMbkFrFHu-ItXetFA-15" target="8i4qMbkFrFHu-ItXetFA-19">
          <mxGeometry relative="1" as="geometry" />
        </mxCell>
        <mxCell id="8i4qMbkFrFHu-ItXetFA-67" value="" style="html=1;shape=mxgraph.electrical.electro-mechanical.thermostat2;aspect=fixed;elSwitchState=on;" vertex="1" parent="1">
          <mxGeometry x="417" y="482" width="75" height="21" as="geometry" />
        </mxCell>
        <mxCell id="8i4qMbkFrFHu-ItXetFA-69" value="" style="verticalLabelPosition=bottom;shadow=0;dashed=0;align=center;html=1;verticalAlign=top;shape=mxgraph.electrical.logic_gates.logic_gate;operation=and;" vertex="1" parent="1">
          <mxGeometry x="310" y="481" width="60" height="37.5" as="geometry" />
        </mxCell>
        <mxCell id="8i4qMbkFrFHu-ItXetFA-70" value="" style="verticalLabelPosition=bottom;shadow=0;dashed=0;align=center;html=1;verticalAlign=top;shape=mxgraph.electrical.logic_gates.logic_gate;operation=and;" vertex="1" parent="1">
          <mxGeometry x="310" y="401.5" width="60" height="37.5" as="geometry" />
        </mxCell>
        <mxCell id="8i4qMbkFrFHu-ItXetFA-71" value="" style="verticalLabelPosition=bottom;shadow=0;dashed=0;align=center;html=1;verticalAlign=top;shape=mxgraph.electrical.logic_gates.logic_gate;operation=and;" vertex="1" parent="1">
          <mxGeometry x="310" y="560" width="60" height="37.5" as="geometry" />
        </mxCell>
        <mxCell id="8i4qMbkFrFHu-ItXetFA-72" value="" style="verticalLabelPosition=bottom;shadow=0;dashed=0;align=center;html=1;verticalAlign=top;shape=mxgraph.electrical.logic_gates.logic_gate;operation=and;" vertex="1" parent="1">
          <mxGeometry x="310" y="320" width="60" height="37.5" as="geometry" />
        </mxCell>
        <mxCell id="8i4qMbkFrFHu-ItXetFA-74" value="" style="endArrow=none;html=1;rounded=0;exitX=0;exitY=0.5;exitDx=0;exitDy=0;exitPerimeter=0;entryX=0.755;entryY=0.94;entryDx=0;entryDy=0;entryPerimeter=0;" edge="1" parent="1" source="8i4qMbkFrFHu-ItXetFA-12" target="8i4qMbkFrFHu-ItXetFA-14">
          <mxGeometry width="50" height="50" relative="1" as="geometry">
            <mxPoint x="370" y="540" as="sourcePoint" />
            <mxPoint x="420" y="490" as="targetPoint" />
          </mxGeometry>
        </mxCell>
        <mxCell id="8i4qMbkFrFHu-ItXetFA-75" value="" style="endArrow=none;html=1;rounded=0;entryX=0;entryY=0.25;entryDx=0;entryDy=0;entryPerimeter=0;" edge="1" parent="1" target="8i4qMbkFrFHu-ItXetFA-72">
          <mxGeometry width="50" height="50" relative="1" as="geometry">
            <mxPoint x="160" y="330" as="sourcePoint" />
            <mxPoint x="420" y="490" as="targetPoint" />
          </mxGeometry>
        </mxCell>
        <mxCell id="8i4qMbkFrFHu-ItXetFA-76" value="" style="endArrow=none;html=1;rounded=0;entryX=0;entryY=0.75;entryDx=0;entryDy=0;entryPerimeter=0;" edge="1" parent="1" target="8i4qMbkFrFHu-ItXetFA-72">
          <mxGeometry width="50" height="50" relative="1" as="geometry">
            <mxPoint x="80" y="348" as="sourcePoint" />
            <mxPoint x="420" y="490" as="targetPoint" />
          </mxGeometry>
        </mxCell>
        <mxCell id="8i4qMbkFrFHu-ItXetFA-77" value="" style="endArrow=none;html=1;rounded=0;entryX=0;entryY=0.25;entryDx=0;entryDy=0;entryPerimeter=0;" edge="1" parent="1" target="8i4qMbkFrFHu-ItXetFA-70">
          <mxGeometry width="50" height="50" relative="1" as="geometry">
            <mxPoint x="160" y="410" as="sourcePoint" />
            <mxPoint x="420" y="490" as="targetPoint" />
          </mxGeometry>
        </mxCell>
        <mxCell id="8i4qMbkFrFHu-ItXetFA-80" value="" style="endArrow=none;html=1;rounded=0;entryX=0;entryY=0.75;entryDx=0;entryDy=0;entryPerimeter=0;" edge="1" parent="1" target="8i4qMbkFrFHu-ItXetFA-69">
          <mxGeometry width="50" height="50" relative="1" as="geometry">
            <mxPoint x="80" y="440" as="sourcePoint" />
            <mxPoint x="420" y="490" as="targetPoint" />
            <Array as="points">
              <mxPoint x="120" y="440" />
              <mxPoint x="120" y="508" />
            </Array>
          </mxGeometry>
        </mxCell>
        <mxCell id="8i4qMbkFrFHu-ItXetFA-81" value="" style="endArrow=none;html=1;rounded=0;fillColor=#f8cecc;strokeColor=#b85450;exitX=1;exitY=0.5;exitDx=0;exitDy=0;exitPerimeter=0;entryX=0;entryY=0.75;entryDx=0;entryDy=0;entryPerimeter=0;" edge="1" parent="1" source="8i4qMbkFrFHu-ItXetFA-68" target="8i4qMbkFrFHu-ItXetFA-70">
          <mxGeometry width="50" height="50" relative="1" as="geometry">
            <mxPoint x="370" y="540" as="sourcePoint" />
            <mxPoint x="420" y="490" as="targetPoint" />
            <Array as="points">
              <mxPoint x="250" y="465" />
              <mxPoint x="250" y="430" />
            </Array>
          </mxGeometry>
        </mxCell>
        <mxCell id="8i4qMbkFrFHu-ItXetFA-83" value="" style="endArrow=none;html=1;rounded=0;exitX=0.634;exitY=0.994;exitDx=0;exitDy=0;exitPerimeter=0;" edge="1" parent="1" source="8i4qMbkFrFHu-ItXetFA-15" target="8i4qMbkFrFHu-ItXetFA-68">
          <mxGeometry width="50" height="50" relative="1" as="geometry">
            <mxPoint x="158" y="260" as="sourcePoint" />
            <mxPoint x="158" y="460" as="targetPoint" />
          </mxGeometry>
        </mxCell>
        <mxCell id="8i4qMbkFrFHu-ItXetFA-68" value="" style="verticalLabelPosition=bottom;shadow=0;dashed=0;align=center;html=1;verticalAlign=top;shape=mxgraph.electrical.logic_gates.inverter_2;rotation=90;" vertex="1" parent="1">
          <mxGeometry x="145" y="441" width="30" height="17" as="geometry" />
        </mxCell>
        <mxCell id="8i4qMbkFrFHu-ItXetFA-84" value="" style="endArrow=none;html=1;rounded=0;fillColor=#f8cecc;strokeColor=#b85450;exitX=0;exitY=0.75;exitDx=0;exitDy=0;exitPerimeter=0;" edge="1" parent="1" source="8i4qMbkFrFHu-ItXetFA-71">
          <mxGeometry width="50" height="50" relative="1" as="geometry">
            <mxPoint x="370" y="540" as="sourcePoint" />
            <mxPoint x="80" y="490" as="targetPoint" />
            <Array as="points">
              <mxPoint x="80" y="588" />
            </Array>
          </mxGeometry>
        </mxCell>
        <mxCell id="8i4qMbkFrFHu-ItXetFA-85" value="" style="endArrow=none;html=1;rounded=0;fillColor=#f8cecc;strokeColor=#b85450;entryX=0;entryY=0.25;entryDx=0;entryDy=0;entryPerimeter=0;" edge="1" parent="1" target="8i4qMbkFrFHu-ItXetFA-71">
          <mxGeometry width="50" height="50" relative="1" as="geometry">
            <mxPoint x="250" y="460" as="sourcePoint" />
            <mxPoint x="250" y="570" as="targetPoint" />
            <Array as="points">
              <mxPoint x="250" y="570" />
            </Array>
          </mxGeometry>
        </mxCell>
        <mxCell id="8i4qMbkFrFHu-ItXetFA-86" value="" style="endArrow=none;html=1;rounded=0;fillColor=#f8cecc;strokeColor=#b85450;exitX=1;exitY=0.5;exitDx=0;exitDy=0;exitPerimeter=0;" edge="1" parent="1" source="8i4qMbkFrFHu-ItXetFA-12">
          <mxGeometry width="50" height="50" relative="1" as="geometry">
            <mxPoint x="370" y="540" as="sourcePoint" />
            <mxPoint x="310" y="490" as="targetPoint" />
            <Array as="points">
              <mxPoint x="76" y="490" />
            </Array>
          </mxGeometry>
        </mxCell>
        <mxCell id="8i4qMbkFrFHu-ItXetFA-91" value="" style="html=1;shape=mxgraph.electrical.electro-mechanical.thermostat2;aspect=fixed;elSwitchState=off;" vertex="1" parent="1">
          <mxGeometry x="418" y="561" width="72" height="20.16" as="geometry" />
        </mxCell>
        <mxCell id="8i4qMbkFrFHu-ItXetFA-92" value="" style="html=1;shape=mxgraph.electrical.electro-mechanical.thermostat2;aspect=fixed;elSwitchState=on;" vertex="1" parent="1">
          <mxGeometry x="419" y="405" width="64.29" height="18" as="geometry" />
        </mxCell>
        <mxCell id="8i4qMbkFrFHu-ItXetFA-93" value="" style="html=1;shape=mxgraph.electrical.electro-mechanical.thermostat2;aspect=fixed;elSwitchState=off;" vertex="1" parent="1">
          <mxGeometry x="418" y="322" width="72" height="20.16" as="geometry" />
        </mxCell>
        <mxCell id="8i4qMbkFrFHu-ItXetFA-94" value="" style="endArrow=none;html=1;rounded=0;entryX=1;entryY=0.5;entryDx=0;entryDy=0;entryPerimeter=0;" edge="1" parent="1" target="8i4qMbkFrFHu-ItXetFA-72">
          <mxGeometry width="50" height="50" relative="1" as="geometry">
            <mxPoint x="420" y="339" as="sourcePoint" />
            <mxPoint x="420" y="490" as="targetPoint" />
          </mxGeometry>
        </mxCell>
        <mxCell id="8i4qMbkFrFHu-ItXetFA-95" value="" style="endArrow=none;html=1;rounded=0;exitX=1;exitY=0.5;exitDx=0;exitDy=0;exitPerimeter=0;entryX=0.157;entryY=0.879;entryDx=0;entryDy=0;entryPerimeter=0;" edge="1" parent="1" source="8i4qMbkFrFHu-ItXetFA-71" target="8i4qMbkFrFHu-ItXetFA-91">
          <mxGeometry width="50" height="50" relative="1" as="geometry">
            <mxPoint x="370" y="540" as="sourcePoint" />
            <mxPoint x="420" y="490" as="targetPoint" />
          </mxGeometry>
        </mxCell>
        <mxCell id="8i4qMbkFrFHu-ItXetFA-96" value="" style="endArrow=none;html=1;rounded=0;exitX=1;exitY=0.5;exitDx=0;exitDy=0;exitPerimeter=0;entryX=0.164;entryY=0.822;entryDx=0;entryDy=0;entryPerimeter=0;" edge="1" parent="1" source="8i4qMbkFrFHu-ItXetFA-69" target="8i4qMbkFrFHu-ItXetFA-67">
          <mxGeometry width="50" height="50" relative="1" as="geometry">
            <mxPoint x="370" y="540" as="sourcePoint" />
            <mxPoint x="410" y="490" as="targetPoint" />
          </mxGeometry>
        </mxCell>
        <mxCell id="8i4qMbkFrFHu-ItXetFA-97" value="" style="endArrow=none;html=1;rounded=0;exitX=1;exitY=0.5;exitDx=0;exitDy=0;exitPerimeter=0;" edge="1" parent="1" source="8i4qMbkFrFHu-ItXetFA-70">
          <mxGeometry width="50" height="50" relative="1" as="geometry">
            <mxPoint x="370" y="540" as="sourcePoint" />
            <mxPoint x="430" y="420" as="targetPoint" />
          </mxGeometry>
        </mxCell>
        <mxCell id="8i4qMbkFrFHu-ItXetFA-98" value="" style="endArrow=none;html=1;rounded=0;exitX=1;exitY=1;exitDx=0;exitDy=0;entryX=0.214;entryY=0.705;entryDx=0;entryDy=0;entryPerimeter=0;" edge="1" parent="1" target="8i4qMbkFrFHu-ItXetFA-115">
          <mxGeometry width="50" height="50" relative="1" as="geometry">
            <mxPoint x="488.9999999999998" y="500" as="sourcePoint" />
            <mxPoint x="560" y="500" as="targetPoint" />
          </mxGeometry>
        </mxCell>
        <mxCell id="8i4qMbkFrFHu-ItXetFA-99" value="" style="endArrow=none;html=1;rounded=0;exitX=1;exitY=1;exitDx=0;exitDy=0;" edge="1" parent="1">
          <mxGeometry width="50" height="50" relative="1" as="geometry">
            <mxPoint x="489" y="578.1599999999999" as="sourcePoint" />
            <mxPoint x="560" y="578" as="targetPoint" />
          </mxGeometry>
        </mxCell>
        <mxCell id="8i4qMbkFrFHu-ItXetFA-100" value="" style="endArrow=none;html=1;rounded=0;entryX=1;entryY=1;entryDx=0;entryDy=0;exitX=0.244;exitY=0.427;exitDx=0;exitDy=0;exitPerimeter=0;" edge="1" parent="1" source="8i4qMbkFrFHu-ItXetFA-115">
          <mxGeometry width="50" height="50" relative="1" as="geometry">
            <mxPoint x="560" y="420" as="sourcePoint" />
            <mxPoint x="483.28999999999974" y="421" as="targetPoint" />
          </mxGeometry>
        </mxCell>
        <mxCell id="8i4qMbkFrFHu-ItXetFA-101" value="" style="endArrow=none;html=1;rounded=0;entryX=1;entryY=1;entryDx=0;entryDy=0;exitX=0.141;exitY=0.155;exitDx=0;exitDy=0;exitPerimeter=0;" edge="1" parent="1" source="8i4qMbkFrFHu-ItXetFA-115">
          <mxGeometry width="50" height="50" relative="1" as="geometry">
            <mxPoint x="570" y="340" as="sourcePoint" />
            <mxPoint x="483.9999999999997" y="340" as="targetPoint" />
          </mxGeometry>
        </mxCell>
        <mxCell id="8i4qMbkFrFHu-ItXetFA-115" value="" style="shape=xor;whiteSpace=wrap;html=1;" vertex="1" parent="1">
          <mxGeometry x="560" y="297" width="180" height="287.5" as="geometry" />
        </mxCell>
        <mxCell id="8i4qMbkFrFHu-ItXetFA-116" value="" style="endArrow=none;html=1;rounded=0;entryX=1;entryY=0.5;entryDx=0;entryDy=0;entryPerimeter=0;" edge="1" parent="1" target="8i4qMbkFrFHu-ItXetFA-115">
          <mxGeometry width="50" height="50" relative="1" as="geometry">
            <mxPoint x="850" y="440" as="sourcePoint" />
            <mxPoint x="420" y="420" as="targetPoint" />
          </mxGeometry>
        </mxCell>
        <mxCell id="8i4qMbkFrFHu-ItXetFA-117" value="" style="pointerEvents=1;verticalLabelPosition=bottom;shadow=0;dashed=0;align=center;html=1;verticalAlign=top;shape=mxgraph.electrical.resistors.resistor_2;rotation=90;" vertex="1" parent="1">
          <mxGeometry x="860" y="481" width="100" height="20" as="geometry" />
        </mxCell>
        <mxCell id="8i4qMbkFrFHu-ItXetFA-118" value="" style="pointerEvents=1;verticalLabelPosition=bottom;shadow=0;dashed=0;align=center;html=1;verticalAlign=top;shape=mxgraph.electrical.signal_sources.signal_ground;" vertex="1" parent="1">
          <mxGeometry x="898.75" y="530" width="22.5" height="20" as="geometry" />
        </mxCell>
        <mxCell id="8i4qMbkFrFHu-ItXetFA-119" value="" style="endArrow=none;html=1;rounded=0;exitX=0;exitY=0.5;exitDx=0;exitDy=0;exitPerimeter=0;" edge="1" parent="1" source="8i4qMbkFrFHu-ItXetFA-117">
          <mxGeometry width="50" height="50" relative="1" as="geometry">
            <mxPoint x="370" y="470" as="sourcePoint" />
            <mxPoint x="850" y="440" as="targetPoint" />
          </mxGeometry>
        </mxCell>
        <mxCell id="8i4qMbkFrFHu-ItXetFA-120" value="PAL CIRCUIT for the equation A*B&#39;+A&#39;*B" style="text;html=1;align=center;verticalAlign=middle;whiteSpace=wrap;rounded=0;" vertex="1" parent="1">
          <mxGeometry x="460" y="190" width="60" height="30" as="geometry" />
        </mxCell>
      </root>
    </mxGraphModel>
  </diagram>
</mxfile>
